<svg width="32" height="32" viewBox="0 0 32 32" fill="none" xmlns="http://www.w3.org/2000/svg">
<path d="M16 19.0001C14.8449 19.0011 13.7075 18.7158 12.6896 18.1698C11.6718 17.6238 10.805 16.834 10.167 15.8711L11.833 14.7641C12.2891 15.4518 12.9083 16.016 13.6353 16.4062C14.3624 16.7965 15.1748 17.0008 16 17.0008C16.8252 17.0008 17.6376 16.7965 18.3647 16.4062C19.0917 16.016 19.7109 15.4518 20.167 14.7641L21.833 15.8711C21.195 16.834 20.3283 17.6238 19.3104 18.1698C18.2925 18.7158 17.1551 19.0011 16 19.0001ZM20 8.0001C19.6044 8.0001 19.2178 8.1174 18.8889 8.33716C18.56 8.55693 18.3036 8.86928 18.1522 9.23474C18.0009 9.60019 17.9613 10.0023 18.0384 10.3903C18.1156 10.7782 18.3061 11.1346 18.5858 11.4143C18.8655 11.694 19.2219 11.8845 19.6098 11.9617C19.9978 12.0388 20.3999 11.9992 20.7654 11.8479C21.1308 11.6965 21.4432 11.4401 21.6629 11.1112C21.8827 10.7823 22 10.3957 22 10.0001C22.0027 9.73671 21.9528 9.47544 21.8532 9.23158C21.7536 8.98772 21.6064 8.76618 21.4202 8.57993C21.2339 8.39368 21.0124 8.24646 20.7685 8.1469C20.5247 8.04733 20.2634 7.99743 20 8.0001ZM12 8.0001C11.6044 8.0001 11.2178 8.1174 10.8889 8.33716C10.56 8.55693 10.3036 8.86928 10.1522 9.23474C10.0009 9.60019 9.96126 10.0023 10.0384 10.3903C10.1156 10.7782 10.3061 11.1346 10.5858 11.4143C10.8655 11.694 11.2219 11.8845 11.6098 11.9617C11.9978 12.0388 12.3999 11.9992 12.7654 11.8479C13.1308 11.6965 13.4432 11.4401 13.6629 11.1112C13.8827 10.7823 14 10.3957 14 10.0001C14.0027 9.73671 13.9528 9.47544 13.8532 9.23158C13.7536 8.98772 13.6064 8.76618 13.4202 8.57993C13.2339 8.39368 13.0124 8.24646 12.7685 8.1469C12.5247 8.04733 12.2634 7.99743 12 8.0001Z" fill="#585FFF"/>
<path d="M17.736 30L16 29L20 22H26C26.2628 22.0004 26.523 21.9489 26.7658 21.8486C27.0087 21.7482 27.2293 21.6009 27.4151 21.4151C27.6009 21.2293 27.7482 21.0087 27.8486 20.7658C27.9489 20.523 28.0004 20.2628 28 20V6C28.0004 5.73725 27.9489 5.477 27.8486 5.23417C27.7482 4.99134 27.6009 4.7707 27.4151 4.58491C27.2293 4.39911 27.0087 4.25181 26.7658 4.15144C26.523 4.05107 26.2628 3.99961 26 4H6C5.73725 3.99961 5.477 4.05107 5.23417 4.15144C4.99134 4.25181 4.7707 4.39911 4.58491 4.58491C4.39911 4.7707 4.25181 4.99134 4.15144 5.23417C4.05107 5.477 3.99961 5.73725 4 6V20C3.99961 20.2628 4.05107 20.523 4.15144 20.7658C4.25181 21.0087 4.39911 21.2293 4.58491 21.4151C4.7707 21.6009 4.99134 21.7482 5.23417 21.8486C5.477 21.9489 5.73725 22.0004 6 22H15V24H6C4.93913 24 3.92172 23.5786 3.17157 22.8284C2.42143 22.0783 2 21.0609 2 20V6C1.99987 5.47468 2.10324 4.95447 2.30421 4.46911C2.50519 3.98375 2.79982 3.54274 3.17128 3.17128C3.54274 2.79982 3.98375 2.50519 4.46911 2.30421C4.95447 2.10324 5.47468 1.99987 6 2H26C26.5253 1.99987 27.0455 2.10324 27.5309 2.30421C28.0163 2.50519 28.4573 2.79982 28.8287 3.17128C29.2002 3.54274 29.4948 3.98375 29.6958 4.46911C29.8968 4.95447 30.0001 5.47468 30 6V20C30 21.0609 29.5786 22.0783 28.8284 22.8284C28.0783 23.5786 27.0609 24 26 24H21.165L17.736 30Z" fill="#585FFF"/>
</svg>
