<svg width="32" height="32" viewBox="0 0 32 32" fill="none" xmlns="http://www.w3.org/2000/svg">
<path d="M8.00049 9H4.00049C3.47006 9 2.96135 9.21071 2.58627 9.58579C2.2112 9.96086 2.00049 10.4696 2.00049 11V23H4.00049V18H8.00049V23H10.0005V11C10.0005 10.4696 9.78977 9.96086 9.4147 9.58579C9.03963 9.21071 8.53092 9 8.00049 9ZM4.00049 16V11H8.00049V16H4.00049ZM22.0005 11H25.0005V21H22.0005V23H30.0005V21H27.0005V11H30.0005V9H22.0005V11ZM14.0005 23H12.0005V9H18.0005C18.5309 9 19.0396 9.21071 19.4147 9.58579C19.7898 9.96086 20.0005 10.4696 20.0005 11V16C20.0005 16.5304 19.7898 17.0391 19.4147 17.4142C19.0396 17.7893 18.5309 18 18.0005 18H14.0005V23ZM14.0005 16H18.0005V11H14.0005V16Z" fill="#1D1D1D"/>
</svg>
