<svg width="50" height="50" viewBox="0 0 50 50" fill="none" xmlns="http://www.w3.org/2000/svg">
    <path d="M0 25C0 11.1929 11.1929 0 25 0H46C48.2091 0 50 1.79086 50 4V25C50 38.8071 38.8071 50 25 50C11.1929 50 0 38.8071 0 25Z" fill="white"/>
    <path d="M26.305 35.5L25 34.75L28 29.5H32.5C32.8978 29.5 33.2794 29.342 33.5607 29.0607C33.842 28.7794 34 28.3978 34 28V19C34 18.6022 33.842 18.2206 33.5607 17.9393C33.2794 17.658 32.8978 17.5 32.5 17.5H17.5C17.1022 17.5 16.7206 17.658 16.4393 17.9393C16.158 18.2206 16 18.6022 16 19V28C16 28.3978 16.158 28.7794 16.4393 29.0607C16.7206 29.342 17.1022 29.5 17.5 29.5H24.25V31H17.5C16.7044 31 15.9413 30.6839 15.3787 30.1213C14.8161 29.5587 14.5 28.7956 14.5 28V19C14.5 18.2044 14.8161 17.4413 15.3787 16.8787C15.9413 16.3161 16.7044 16 17.5 16H32.5C33.2956 16 34.0587 16.3161 34.6213 16.8787C35.1839 17.4413 35.5 18.2044 35.5 19V28C35.5 28.7956 35.1839 29.5587 34.6213 30.1213C34.0587 30.6839 33.2956 31 32.5 31H28.87L26.305 35.5Z" fill="#585FFF"/>
    <path d="M19 20.5H31V22H19V20.5ZM19 25H26.5V26.5H19V25Z" fill="#585FFF"/>
</svg>
