<svg width="22" height="22" viewBox="0 0 22 22" fill="none" xmlns="http://www.w3.org/2000/svg">
    <path d="M11 21.5C5.225 21.5 0.5 16.775 0.5 11C0.5 5.225 5.225 0.5 11 0.5H11.225L12.275 0.575L12.05 1.475C11.975 1.775 11.9 2.15 11.9 2.45C11.9 4.55 13.55 6.2 15.65 6.2C16.4 6.2 17.15 5.975 17.825 5.525L18.8 6.65C18.5 6.95 18.35 7.325 18.35 7.7C18.35 8.675 19.325 9.5 20.375 9.125L21.275 8.75L21.425 9.725C21.5 10.175 21.5 10.625 21.5 11C21.5 16.775 16.775 21.5 11 21.5ZM10.475 2C5.75 2.3 2 6.2 2 11C2 15.95 6.05 20 11 20C15.95 20 20 15.95 20 11V10.7C18.275 10.775 16.85 9.425 16.85 7.7V7.55C16.475 7.625 16.1 7.7 15.65 7.7C12.725 7.7 10.4 5.375 10.4 2.45C10.4 2.3 10.4 2.15 10.475 2Z" fill="black"/>
</svg>
