<svg width="231" height="231" fill="none" xmlns="http://www.w3.org/2000/svg"><path d="M173.345 231H0V57.67C0 25.87 25.869 0 57.662 0h115.676C205.131 0 231 25.87 231 57.67v115.67c.007 31.789-25.862 57.66-57.655 57.66Z" fill="#585FFF"/><path d="M59.597 59.736V171.14h20.76v-33.738h20.687a38.876 38.876 0 0 0 38.834-39.055c-.124-21.455-17.83-38.612-39.258-38.612H59.597Zm41.144 56.871H80.357v-36.12h20.687a18.084 18.084 0 0 1 12.888 5.419 18.081 18.081 0 0 1 5.169 12.989c-.189 9.887-8.469 17.712-18.36 17.712ZM164.194 172.18c7.001 0 12.676-5.675 12.676-12.675 0-7.001-5.675-12.676-12.676-12.676s-12.676 5.675-12.676 12.676c0 7 5.675 12.675 12.676 12.675Z" fill="#fff"/></svg>