<svg width="81" height="51" fill="none" xmlns="http://www.w3.org/2000/svg"><g clip-path="url(#a)" fill="#585FFF"><path d="M42.596 18.52a8.771 8.771 0 0 0-8.789-.083 8.722 8.722 0 0 0-3.234 3.188 8.669 8.669 0 0 0 0 8.748 8.721 8.721 0 0 0 3.234 3.188 8.772 8.772 0 0 0 8.79-.084v1.117h4.278v-17.21h-4.279v1.137ZM38.13 30.44c-.883 0-1.746-.26-2.48-.748a4.446 4.446 0 0 1-1.643-1.993 4.423 4.423 0 0 1 .967-4.84 4.482 4.482 0 0 1 4.863-.963 4.458 4.458 0 0 1 2.003 1.635c.49.73.752 1.59.752 2.468a4.436 4.436 0 0 1-1.308 3.14 4.478 4.478 0 0 1-3.154 1.302ZM20.237 11.756h-8.452v22.841h4.279V27.68h4.26a8.04 8.04 0 0 0 5.67-2.35 7.938 7.938 0 0 0 2.329-5.657c-.024-4.399-3.672-7.917-8.086-7.917Zm.026 11.664h-4.2v-7.41h4.262a3.74 3.74 0 0 1 2.654 1.112 3.706 3.706 0 0 1 1.065 2.663c-.039 2.027-1.745 3.631-3.782 3.631v.004ZM69.699 34.74a2.605 2.605 0 0 0 2.611-2.598 2.605 2.605 0 0 0-2.611-2.599 2.605 2.605 0 0 0-2.611 2.599 2.605 2.605 0 0 0 2.611 2.599ZM63.587 17.324l-5.022 12.929-5.177-12.869h-4.68l6.917 17.21h1.249l-.023.06a4.412 4.412 0 0 1-1.627 2.045 4.445 4.445 0 0 1-2.504.772h-.504v4.259h.576a8.79 8.79 0 0 0 4.916-1.528 8.728 8.728 0 0 0 3.205-4.013l7.328-18.865h-4.654Z"/><path d="M69.118 51H0V11.827C0 5.306 5.33 0 11.881 0h57.237C75.67 0 81 5.306 81 11.827v27.348C81 45.695 75.67 51 69.118 51ZM4.28 46.741h64.84a7.63 7.63 0 0 0 5.373-2.219 7.558 7.558 0 0 0 2.229-5.348V11.827a7.557 7.557 0 0 0-2.229-5.349 7.63 7.63 0 0 0-5.374-2.219H11.881a7.629 7.629 0 0 0-5.373 2.22 7.557 7.557 0 0 0-2.229 5.348V46.74Z"/></g><defs><clipPath id="a"><path fill="#fff" d="M0 0h81v51H0z"/></clipPath></defs></svg>