<svg width="64" height="40" fill="none" xmlns="http://www.w3.org/2000/svg"><g clip-path="url(#a)"><path d="M53.77 40H0V9.276C0 4.16 4.146 0 9.243 0H53.77c5.097 0 9.244 4.161 9.244 9.276v21.449c0 5.114-4.147 9.275-9.244 9.275Z" fill="#fff"/><path d="M33.137 14.526a6.782 6.782 0 0 0-9.353 2.435 6.842 6.842 0 0 0 0 6.861 6.811 6.811 0 0 0 2.516 2.5 6.782 6.782 0 0 0 6.837-.065v.875h3.33V13.635h-3.33v.891Zm-3.475 9.35a3.463 3.463 0 0 1-1.928-.59 3.495 3.495 0 0 1-.522-5.36 3.468 3.468 0 0 1 3.783-.753c.634.264 1.176.71 1.557 1.283a3.493 3.493 0 0 1-.434 4.399 3.47 3.47 0 0 1-2.456 1.02ZM15.743 9.22H9.168v17.913h3.329v-5.426h3.315a6.21 6.21 0 0 0 4.41-1.843 6.25 6.25 0 0 0 1.812-4.437c-.02-3.447-2.857-6.206-6.29-6.206Zm.02 9.149h-3.266v-5.811h3.315A2.892 2.892 0 0 1 18.5 14.39c.142.358.212.742.205 1.128-.03 1.59-1.357 2.848-2.942 2.848v.003ZM54.223 27.247a2.035 2.035 0 0 0 2.031-2.038c0-1.125-.91-2.038-2.031-2.038a2.035 2.035 0 0 0-2.032 2.038c0 1.126.91 2.038 2.032 2.038ZM49.467 13.587 45.56 23.728l-4.024-10.093h-3.642l5.382 13.498h.971l-.018.046a3.476 3.476 0 0 1-1.267 1.6 3.458 3.458 0 0 1-1.946.61h-.392v3.34h.448a6.8 6.8 0 0 0 3.824-1.198 6.837 6.837 0 0 0 2.493-3.147l5.7-14.797h-3.622Z" fill="#585FFF"/></g><defs><clipPath id="a"><path fill="#fff" d="M0 0h63.014v40H0z"/></clipPath></defs></svg>