<svg width="16" height="15" viewBox="0 0 16 15" fill="none" xmlns="http://www.w3.org/2000/svg">
<path d="M15.3174 0.181106C15.233 0.0971517 15.1265 0.039025 15.0102 0.0135601C14.894 -0.0119049 14.7729 -0.00364934 14.6611 0.037356L0.911157 5.03736C0.792575 5.08233 0.690482 5.16232 0.618439 5.2667C0.546397 5.37108 0.507812 5.4949 0.507812 5.62173C0.507812 5.74856 0.546397 5.87238 0.618439 5.97676C0.690482 6.08114 0.792575 6.16113 0.911157 6.20611L6.2799 8.34986L10.2424 4.37486L11.1236 5.25611L7.1424 9.23736L9.2924 14.6061C9.33871 14.7224 9.41888 14.8221 9.52251 14.8923C9.62615 14.9625 9.74847 15 9.87365 14.9999C9.99995 14.9973 10.1225 14.9565 10.2251 14.8828C10.3278 14.8092 10.4057 14.7062 10.4486 14.5874L15.4486 0.837356C15.4912 0.726779 15.5015 0.606375 15.4783 0.490183C15.455 0.373992 15.3992 0.2668 15.3174 0.181106Z" fill="white"/>
</svg>
