<svg width="28" height="21" viewBox="0 0 28 21" fill="none" xmlns="http://www.w3.org/2000/svg">
<path d="M23 10.4402V9.41619C23 6.97196 22.0518 4.62783 20.364 2.8995C18.6761 1.17116 16.3869 0.200195 14 0.200195C11.6131 0.200195 9.32387 1.17116 7.63604 2.8995C5.94821 4.62783 5 6.97196 5 9.41619V10.4402C3.67392 10.4402 2.40215 10.9796 1.46447 11.9398C0.526784 12.9 0 14.2023 0 15.5602C0 16.9181 0.526784 18.2204 1.46447 19.1806C2.40215 20.1408 3.67392 20.6802 5 20.6802H7V9.41619C7 7.51512 7.7375 5.69191 9.05025 4.34765C10.363 3.00339 12.1435 2.2482 14 2.2482C15.8565 2.2482 17.637 3.00339 18.9497 4.34765C20.2625 5.69191 21 7.51512 21 9.41619V20.6802H23C24.3261 20.6802 25.5979 20.1408 26.5355 19.1806C27.4732 18.2204 28 16.9181 28 15.5602C28 14.2023 27.4732 12.9 26.5355 11.9398C25.5979 10.9796 24.3261 10.4402 23 10.4402ZM2 15.5602C2 14.7454 2.31607 13.9641 2.87868 13.388C3.44129 12.8119 4.20435 12.4882 5 12.4882V18.6322C4.20435 18.6322 3.44129 18.3085 2.87868 17.7324C2.31607 17.1563 2 16.3749 2 15.5602ZM23 18.6322V12.4882C23.7956 12.4882 24.5587 12.8119 25.1213 13.388C25.6839 13.9641 26 14.7454 26 15.5602C26 16.3749 25.6839 17.1563 25.1213 17.7324C24.5587 18.3085 23.7956 18.6322 23 18.6322Z" fill="black"/>
</svg>
